<svg width="111" height="24" viewBox="0 0 111 24" fill="none" xmlns="http://www.w3.org/2000/svg">
<path d="M14.576 23V1.88H18.064V23H14.576ZM0.624 23V1.88H4.112V23H0.624ZM2.48 13.72V10.776H15.952V13.72H2.48ZM22.1603 23V19.128L29.9043 13.528C30.3309 13.1867 30.7683 12.824 31.2163 12.44C31.6856 12.0347 32.1123 11.5867 32.4963 11.096C32.9016 10.6053 33.2216 10.0827 33.4563 9.528C33.7123 8.97333 33.8403 8.36533 33.8403 7.704C33.8403 7.04267 33.6909 6.46667 33.3923 5.976C33.0936 5.48533 32.6456 5.10133 32.0483 4.824C31.4723 4.54667 30.7469 4.408 29.8723 4.408C29.2109 4.408 28.6136 4.51467 28.0803 4.728C27.5469 4.92 27.0989 5.22933 26.7363 5.656C26.3736 6.06133 26.1069 6.59467 25.9363 7.256C25.7656 7.91733 25.6803 8.71733 25.6803 9.656L22.3203 9.016C22.2776 7.45867 22.5443 6.11467 23.1203 4.984C23.6963 3.85333 24.5496 2.97867 25.6803 2.36C26.8323 1.72 28.2509 1.4 29.9363 1.4C31.4083 1.4 32.6989 1.64533 33.8083 2.136C34.9176 2.60533 35.7709 3.288 36.3683 4.184C36.9869 5.08 37.2963 6.168 37.2963 7.448C37.2963 8.472 37.1256 9.41067 36.7843 10.264C36.4429 11.1173 35.9949 11.8853 35.4403 12.568C34.9069 13.2507 34.3203 13.8587 33.6803 14.392C33.0403 14.9253 32.4109 15.3947 31.7923 15.8L26.0963 19.928V20.184L37.7763 20.056V23H22.1603ZM43.0245 23V11.64H40.1445V8.952L44.4005 9.176V8.6C43.8032 8.408 43.3018 8.13067 42.8965 7.768C42.5125 7.384 42.2138 6.94667 42.0005 6.456C41.8085 5.944 41.7125 5.4 41.7125 4.824C41.7125 3.928 41.9258 3.14933 42.3525 2.488C42.7792 1.80533 43.3765 1.28267 44.1445 0.919998C44.9338 0.535999 45.8512 0.344 46.8965 0.344C47.7712 0.344 48.5605 0.461333 49.2645 0.695999C49.9685 0.909332 50.5445 1.19733 50.9925 1.56L50.6725 4.76C50.2245 4.39733 49.7018 4.09867 49.1045 3.864C48.5072 3.62933 47.9205 3.512 47.3445 3.512C46.6618 3.512 46.0965 3.72533 45.6485 4.152C45.2218 4.55733 45.0085 5.19733 45.0085 6.072C45.0085 6.60533 45.0938 7.05333 45.2645 7.416C45.4352 7.77867 45.6592 8.07733 45.9365 8.312C46.2138 8.52533 46.4912 8.696 46.7685 8.824H50.7685V11.64H46.4165V23H43.0245ZM53.8688 23V0.439999H57.2928V23H53.8688ZM69.3515 23.416C67.7515 23.416 66.3328 23.0747 65.0955 22.392C63.8582 21.7093 62.8875 20.7173 62.1835 19.416C61.5008 18.1147 61.1595 16.5147 61.1595 14.616C61.1595 12.6747 61.5222 11.064 62.2475 9.784C62.9728 8.504 63.9435 7.544 65.1595 6.904C66.3968 6.264 67.7835 5.944 69.3195 5.944C70.8982 5.944 72.3062 6.27467 73.5435 6.936C74.7808 7.59733 75.7515 8.57867 76.4555 9.88C77.1808 11.1813 77.5435 12.8027 77.5435 14.744C77.5435 16.664 77.1808 18.2747 76.4555 19.576C75.7515 20.856 74.7808 21.816 73.5435 22.456C72.3062 23.096 70.9088 23.416 69.3515 23.416ZM69.4795 20.664C70.4395 20.664 71.2608 20.44 71.9435 19.992C72.6262 19.544 73.1488 18.8827 73.5115 18.008C73.8742 17.1333 74.0555 16.088 74.0555 14.872C74.0555 13.6133 73.8635 12.536 73.4795 11.64C73.0955 10.7227 72.5408 10.0187 71.8155 9.528C71.1115 9.03733 70.2475 8.792 69.2235 8.792C68.3062 8.792 67.4955 9.016 66.7915 9.464C66.1088 9.89067 65.5862 10.5413 65.2235 11.416C64.8608 12.2693 64.6795 13.3147 64.6795 14.552C64.6795 16.4933 65.1062 17.9973 65.9595 19.064C66.8128 20.1307 67.9862 20.664 69.4795 20.664ZM83.899 23L79.579 6.36H83.163L86.139 20.12H86.683L89.947 6.36H94.299L97.627 20.12H98.139L101.083 6.36H104.635L100.283 23H95.451L92.283 9.272H91.867L88.731 23H83.899ZM107.667 23.384C106.877 23.384 106.28 23.2133 105.875 22.872C105.491 22.5307 105.299 21.9973 105.299 21.272C105.299 20.5253 105.501 19.9813 105.907 19.64C106.312 19.2987 106.899 19.128 107.667 19.128C108.477 19.128 109.085 19.2987 109.491 19.64C109.896 19.9813 110.099 20.5253 110.099 21.272C110.099 22.68 109.288 23.384 107.667 23.384Z" fill="#27316A"/>
</svg>
