<svg width="48" height="48" viewBox="0 0 48 48" fill="none" xmlns="http://www.w3.org/2000/svg">
<circle cx="24" cy="24" r="24" fill="#27316A"/>
<path d="M13.3061 35.9014C14.2794 33.6083 16.5519 32 19.2 32H28.8C31.4481 32 33.7206 33.6083 34.6939 35.9015M30.4 20C30.4 23.5346 27.5346 26.4 24 26.4C20.4654 26.4 17.6 23.5346 17.6 20C17.6 16.4654 20.4654 13.6 24 13.6C27.5346 13.6 30.4 16.4654 30.4 20ZM40 24C40 32.8366 32.8366 40 24 40C15.1634 40 8 32.8366 8 24C8 15.1634 15.1634 8 24 8C32.8366 8 40 15.1634 40 24Z" stroke="white" stroke-width="2" stroke-linecap="round" stroke-linejoin="round"/>
</svg>
