<svg width="40" height="40" viewBox="0 0 40 40" fill="none" xmlns="http://www.w3.org/2000/svg">
<path d="M15.6585 32.2852L16.6326 34.4759C16.9222 35.128 17.3947 35.6821 17.993 36.071C18.5912 36.4598 19.2895 36.6668 20.003 36.6666C20.7165 36.6668 21.4147 36.4598 22.013 36.071C22.6112 35.6821 23.0838 35.128 23.3734 34.4759L24.3474 32.2852C24.6942 31.5078 25.2774 30.8597 26.0141 30.4333C26.7554 30.0057 27.613 29.8236 28.4641 29.9129L30.8474 30.1666C31.5569 30.2417 32.2729 30.1093 32.9086 29.7855C33.5443 29.4618 34.0724 28.9605 34.4289 28.3426C34.7859 27.725 34.9559 27.0171 34.9185 26.3048C34.881 25.5925 34.6376 24.9063 34.2178 24.3296L32.8067 22.3907C32.3042 21.6952 32.0358 20.858 32.04 20C32.0399 19.1443 32.3109 18.3106 32.8141 17.6185L34.2252 15.6796C34.645 15.1029 34.8884 14.4168 34.9259 13.7044C34.9633 12.9921 34.7933 12.2842 34.4363 11.6666C34.0798 11.0487 33.5517 10.5475 32.916 10.2237C32.2803 9.89992 31.5643 9.76753 30.8548 9.84257L28.4715 10.0963C27.6204 10.1857 26.7628 10.0035 26.0215 9.57591C25.2834 9.14707 24.7 8.49558 24.3548 7.7148L23.3734 5.52405C23.0838 4.87193 22.6112 4.31784 22.013 3.92898C21.4147 3.54012 20.7165 3.3332 20.003 3.33331C19.2895 3.3332 18.5912 3.54012 17.993 3.92898C17.3947 4.31784 16.9222 4.87193 16.6326 5.52405L15.6585 7.7148C15.3134 8.49558 14.73 9.14707 13.9919 9.57591C13.2506 10.0035 12.393 10.1857 11.5419 10.0963L9.15114 9.84257C8.44169 9.76753 7.7257 9.89992 7.09 10.2237C6.45429 10.5475 5.92616 11.0487 5.56966 11.6666C5.21269 12.2842 5.04263 12.9921 5.0801 13.7044C5.11758 14.4168 5.36098 15.1029 5.78077 15.6796L7.19188 17.6185C7.69511 18.3106 7.96611 19.1443 7.96595 20C7.96611 20.8557 7.69511 21.6894 7.19188 22.3815L5.78077 24.3204C5.36098 24.8971 5.11758 25.5832 5.0801 26.2955C5.04263 27.0079 5.21269 27.7157 5.56966 28.3333C5.92652 28.9509 6.4547 29.4519 7.09032 29.7756C7.72594 30.0994 8.44174 30.232 9.15114 30.1574L11.5345 29.9037C12.3856 29.8143 13.2432 29.9964 13.9845 30.4241C14.7254 30.8517 15.3115 31.5033 15.6585 32.2852Z" stroke="#27316A" stroke-width="4" stroke-linecap="round" stroke-linejoin="round"/>
<path d="M20 25C22.7614 25 25 22.7614 25 20C25 17.2386 22.7614 15 20 15C17.2386 15 15 17.2386 15 20C15 22.7614 17.2386 25 20 25Z" stroke="#27316A" stroke-width="4" stroke-linecap="round" stroke-linejoin="round"/>
</svg>
